<mxfile host="app.diagrams.net" modified="2022-01-13T21:17:37.571Z" agent="5.0 (Windows NT 10.0; Win64; x64) AppleWebKit/537.36 (KHTML, like Gecko) Chrome/97.0.4692.71 Safari/537.36" etag="XV29GBwKLdxlgQtk2F5F" version="16.2.4" type="github">
  <diagram id="_UXg3EZRKqw_mdlAzJet" name="Page-1">
    <mxGraphModel dx="1229" dy="2273" grid="1" gridSize="10" guides="1" tooltips="1" connect="1" arrows="1" fold="1" page="1" pageScale="1" pageWidth="827" pageHeight="1169" background="none" math="0" shadow="1">
      <root>
        <mxCell id="0" />
        <mxCell id="1" parent="0" />
        <mxCell id="QuIaBzUg3UuywY2mTjsj-6" style="edgeStyle=orthogonalEdgeStyle;rounded=0;orthogonalLoop=1;jettySize=auto;html=1;exitX=1;exitY=0.5;exitDx=0;exitDy=0;entryX=0;entryY=0.5;entryDx=0;entryDy=0;" edge="1" parent="1" source="QuIaBzUg3UuywY2mTjsj-1" target="QuIaBzUg3UuywY2mTjsj-2">
          <mxGeometry relative="1" as="geometry" />
        </mxCell>
        <mxCell id="QuIaBzUg3UuywY2mTjsj-10" style="edgeStyle=orthogonalEdgeStyle;rounded=0;orthogonalLoop=1;jettySize=auto;html=1;exitX=0.5;exitY=1;exitDx=0;exitDy=0;entryX=0.5;entryY=0;entryDx=0;entryDy=0;" edge="1" parent="1" source="QuIaBzUg3UuywY2mTjsj-1" target="QuIaBzUg3UuywY2mTjsj-9">
          <mxGeometry relative="1" as="geometry" />
        </mxCell>
        <mxCell id="QuIaBzUg3UuywY2mTjsj-1" value="Avatar Owner?" style="rhombus;whiteSpace=wrap;html=1;rounded=1;fillColor=#f5f5f5;fontColor=#333333;strokeColor=#666666;" vertex="1" parent="1">
          <mxGeometry x="393" y="-759" width="80" height="80" as="geometry" />
        </mxCell>
        <mxCell id="QuIaBzUg3UuywY2mTjsj-3" style="edgeStyle=orthogonalEdgeStyle;rounded=0;orthogonalLoop=1;jettySize=auto;html=1;exitX=0.5;exitY=0;exitDx=0;exitDy=0;entryX=0.5;entryY=0;entryDx=0;entryDy=0;" edge="1" parent="1" source="QuIaBzUg3UuywY2mTjsj-2" target="QuIaBzUg3UuywY2mTjsj-1">
          <mxGeometry relative="1" as="geometry">
            <Array as="points">
              <mxPoint x="614" y="-809" />
              <mxPoint x="433" y="-809" />
            </Array>
          </mxGeometry>
        </mxCell>
        <mxCell id="QuIaBzUg3UuywY2mTjsj-2" value="Buy Avatar" style="rounded=1;whiteSpace=wrap;html=1;glass=0;fillColor=#f5f5f5;fontColor=#333333;strokeColor=#666666;" vertex="1" parent="1">
          <mxGeometry x="574" y="-739" width="80" height="40" as="geometry" />
        </mxCell>
        <mxCell id="QuIaBzUg3UuywY2mTjsj-5" style="edgeStyle=orthogonalEdgeStyle;rounded=0;orthogonalLoop=1;jettySize=auto;html=1;exitX=1;exitY=0.5;exitDx=0;exitDy=0;entryX=0;entryY=0.5;entryDx=0;entryDy=0;" edge="1" parent="1" source="QuIaBzUg3UuywY2mTjsj-4" target="QuIaBzUg3UuywY2mTjsj-1">
          <mxGeometry relative="1" as="geometry" />
        </mxCell>
        <mxCell id="QuIaBzUg3UuywY2mTjsj-16" style="edgeStyle=orthogonalEdgeStyle;rounded=0;orthogonalLoop=1;jettySize=auto;html=1;exitX=0.5;exitY=1;exitDx=0;exitDy=0;entryX=0;entryY=0.5;entryDx=0;entryDy=0;" edge="1" parent="1" source="QuIaBzUg3UuywY2mTjsj-4" target="QuIaBzUg3UuywY2mTjsj-15">
          <mxGeometry relative="1" as="geometry" />
        </mxCell>
        <mxCell id="QuIaBzUg3UuywY2mTjsj-4" value="Start" style="ellipse;whiteSpace=wrap;html=1;fillColor=#d5e8d4;strokeColor=#82b366;" vertex="1" parent="1">
          <mxGeometry x="174" y="-749" width="90" height="60" as="geometry" />
        </mxCell>
        <mxCell id="QuIaBzUg3UuywY2mTjsj-8" value="No" style="text;html=1;strokeColor=none;fillColor=none;align=center;verticalAlign=middle;whiteSpace=wrap;rounded=0;labelBackgroundColor=none;" vertex="1" parent="1">
          <mxGeometry x="484" y="-739" width="60" height="30" as="geometry" />
        </mxCell>
        <mxCell id="QuIaBzUg3UuywY2mTjsj-13" style="edgeStyle=orthogonalEdgeStyle;rounded=0;orthogonalLoop=1;jettySize=auto;html=1;exitX=0.5;exitY=1;exitDx=0;exitDy=0;entryX=0.5;entryY=0;entryDx=0;entryDy=0;" edge="1" parent="1" source="QuIaBzUg3UuywY2mTjsj-9" target="QuIaBzUg3UuywY2mTjsj-11">
          <mxGeometry relative="1" as="geometry" />
        </mxCell>
        <mxCell id="QuIaBzUg3UuywY2mTjsj-14" style="edgeStyle=orthogonalEdgeStyle;rounded=0;orthogonalLoop=1;jettySize=auto;html=1;exitX=0.5;exitY=1;exitDx=0;exitDy=0;" edge="1" parent="1" source="QuIaBzUg3UuywY2mTjsj-9" target="QuIaBzUg3UuywY2mTjsj-12">
          <mxGeometry relative="1" as="geometry" />
        </mxCell>
        <mxCell id="QuIaBzUg3UuywY2mTjsj-9" value="Mint your own exclusive&lt;br&gt;Crypto Kiwi" style="rounded=1;whiteSpace=wrap;html=1;verticalAlign=middle;fillColor=#dae8fc;strokeColor=#6c8ebf;" vertex="1" parent="1">
          <mxGeometry x="373" y="-619" width="120" height="60" as="geometry" />
        </mxCell>
        <mxCell id="QuIaBzUg3UuywY2mTjsj-17" style="edgeStyle=orthogonalEdgeStyle;rounded=0;orthogonalLoop=1;jettySize=auto;html=1;exitX=0.5;exitY=1;exitDx=0;exitDy=0;entryX=0.5;entryY=0;entryDx=0;entryDy=0;" edge="1" parent="1" source="QuIaBzUg3UuywY2mTjsj-11" target="QuIaBzUg3UuywY2mTjsj-15">
          <mxGeometry relative="1" as="geometry" />
        </mxCell>
        <mxCell id="QuIaBzUg3UuywY2mTjsj-11" value="Resell on Marketplace" style="rounded=1;whiteSpace=wrap;html=1;verticalAlign=middle;fillColor=#dae8fc;strokeColor=#6c8ebf;" vertex="1" parent="1">
          <mxGeometry x="288" y="-509" width="120" height="60" as="geometry" />
        </mxCell>
        <mxCell id="QuIaBzUg3UuywY2mTjsj-12" value="Set as your Avatar Profile Picture" style="rounded=1;whiteSpace=wrap;html=1;verticalAlign=middle;fillColor=#dae8fc;strokeColor=#6c8ebf;" vertex="1" parent="1">
          <mxGeometry x="458" y="-509" width="120" height="60" as="geometry" />
        </mxCell>
        <mxCell id="QuIaBzUg3UuywY2mTjsj-15" value="NFT Marketplaces" style="rounded=1;whiteSpace=wrap;html=1;verticalAlign=middle;fillColor=#dae8fc;strokeColor=#6c8ebf;" vertex="1" parent="1">
          <mxGeometry x="288" y="-419" width="120" height="60" as="geometry" />
        </mxCell>
        <mxCell id="QuIaBzUg3UuywY2mTjsj-18" value="MINT" style="text;html=1;strokeColor=none;fillColor=none;align=center;verticalAlign=middle;whiteSpace=wrap;rounded=0;labelBackgroundColor=none;" vertex="1" parent="1">
          <mxGeometry x="302" y="-739" width="60" height="30" as="geometry" />
        </mxCell>
        <mxCell id="QuIaBzUg3UuywY2mTjsj-20" value="BUY" style="text;html=1;strokeColor=none;fillColor=none;align=center;verticalAlign=middle;whiteSpace=wrap;rounded=0;labelBackgroundColor=none;rotation=90;" vertex="1" parent="1">
          <mxGeometry x="204" y="-604" width="60" height="30" as="geometry" />
        </mxCell>
      </root>
    </mxGraphModel>
  </diagram>
</mxfile>
